<svg xmlns="http://www.w3.org/2000/svg" xml:space="preserve" width="800" height="800" viewBox="0 0 74.666 74.666"><path d="M71.858 31.338v-9.86h-5.625L58.324 7.833H26.088l-7.584 13.101-14.47-10.607-1.384 1.888 12.64 9.263H2.171v9.86H0v4.672h2.175v3.603h13.526v-1.168a4.581 4.581 0 0 1 4.577-4.57c2.52 0 4.57 2.053 4.57 4.57v1.168h5.695v1.866h3.285v23.019h-7.104v2.336h21.215v-2.336h-7.103V41.479h3.282v-1.866h4.305c.557 3.256 3.373 5.739 6.781 5.739 3.412 0 6.234-2.483 6.791-5.739h9.86V36.01h2.811v-4.672h-2.808zM55.206 43.021a4.573 4.573 0 0 1 0-9.146 4.58 4.58 0 0 1 4.576 4.57 4.578 4.578 0 0 1-4.576 4.576zm14.316-5.743h-7.523c-.557-3.254-3.378-5.739-6.79-5.739-3.408 0-6.226 2.485-6.782 5.739H27.085c-.556-3.256-3.398-5.739-6.808-5.739a6.918 6.918 0 0 0-6.814 5.739H4.511V23.814h15.025l7.903-13.645h29.542l7.906 13.645h4.64v13.464h-.005zM40.795 13.095h13.243v10.63H40.795v-10.63zm15.579 1.864 5.078 8.764h-5.078v-8.764zM29.12 13.095h9.339v10.63h-15.5l6.161-10.63zM17.53 44.337c-3.814 0-6.914 3.098-6.914 6.907 0 2.066.934 3.905 2.385 5.173h-1.899v4.672H23.96v-4.672h-1.899c1.446-1.268 2.385-3.106 2.385-5.173-.009-3.809-3.107-6.907-6.916-6.907zm0 11.474c-2.522 0-4.578-2.048-4.578-4.566a4.58 4.58 0 0 1 4.578-4.571 4.574 4.574 0 0 1 4.569 4.571 4.569 4.569 0 0 1-4.569 4.566zm-6.428 6.35H23.96v4.672H11.102v-4.672z"/></svg>